<?xml version="1.0" encoding="iso-8859-1"?>
<!-- Generator: Adobe Illustrator 19.0.0, SVG Export Plug-In . SVG Version: 6.00 Build 0)  -->
<svg version="1.1" id="Layer_1" xmlns="http://www.w3.org/2000/svg" xmlns:xlink="http://www.w3.org/1999/xlink" x="0px" y="0px"
	 viewBox="0 0 512 512" style="enable-background:new 0 0 512 512;" xml:space="preserve">
<polygon style="fill:#F4A026;" points="496.399,141.7 255.415,428.539 14.431,141.7 "/>
<path d="M496.399,127.268H14.431c-5.61,0-10.711,2.977-13.081,8.063c-2.37,5.084-1.577,10.946,2.032,15.241l240.984,286.771
	c2.742,3.264,6.787,5.115,11.05,5.115c4.263,0,8.307-1.902,11.05-5.165l240.984-286.849c3.608-4.296,4.4-10.024,2.032-15.11
	C507.112,130.25,502.01,127.268,496.399,127.268z M255.417,406.105L45.404,156.131h420.022L255.417,406.105z"/>
<path d="M15.554,98.405h482.014c7.971,0,14.432-6.462,14.432-14.432s-6.461-14.432-14.432-14.432H15.554
	c-7.971,0-14.432,6.462-14.432,14.432S7.585,98.405,15.554,98.405z"/>
<g>
</g>
<g>
</g>
<g>
</g>
<g>
</g>
<g>
</g>
<g>
</g>
<g>
</g>
<g>
</g>
<g>
</g>
<g>
</g>
<g>
</g>
<g>
</g>
<g>
</g>
<g>
</g>
<g>
</g>
</svg>
