<svg width="799.995" height="241.283" viewBox="0.006 0.001 799.995 241.283" xmlns="http://www.w3.org/2000/svg"><defs><linearGradient id="a" x1="199.95" x2="321.85" y1="-29.894" y2="125.56" gradientTransform="matrix(1.4025 0 0 -1.4025 .00051689 261.87)" gradientUnits="userSpaceOnUse"><stop stop-color="#432C79" offset="0"/><stop stop-color="#432C79" offset=".064"/><stop stop-color="#C30C2B" offset=".692"/><stop stop-color="#C30C2B" offset="1"/></linearGradient></defs><path d="m702.46 187.03h-89.781v-92.163a42.758 42.758 0 1 1 85.201 6.922 42.77 42.77 0 1 1 5.7076 85.237zm-73.24-16.528h74.26a26.243 26.243 0 1 0-14.293-48.575 8.2699 8.2699 0 0 1-11.39-11.354 26.097 26.097 0 0 0 2.4287-21.993 25.745 25.745 0 0 0-6.3026-10.238 26.219 26.219 0 0 0-44.75 17.123zm101.29 38.86a68.54 68.54 0 0 0 24.287-17.002 70.046 70.046 0 0 0 15.277-26.243 6.4631 6.4631 0 0 0-12.265-4.0803v0.17002a57.173 57.173 0 0 1-12.435 21.373 55.862 55.862 0 0 1-19.843 13.771 6.4605 6.4605 0 1 0 4.8576 11.949zm-129.52-131.71a55.959 55.959 0 0 1 15.253-23.328 57.076 57.076 0 0 1 20.438-12.047 6.4632 6.4632 0 0 0-4.1532-12.241 70.155 70.155 0 0 0-25.102 14.791 68.552 68.552 0 0 0-18.653 28.623 6.4605 6.4605 0 0 0 4.0075 8.1971 6.4484 6.4484 0 0 0 8.1971-3.9953zm-29.51-0.65576c0.61934-2.7081 1.3722-5.404 2.2466-8.0149a84.181 84.181 0 0 1 23.073-35.667 85.116 85.116 0 0 1 39.176-20.462 6.4605 6.4605 0 1 0-2.4288-12.679l-0.34003 0.07287a98.192 98.192 0 0 0-45.114 23.559 96.893 96.893 0 0 0-26.619 41.083 93.948 93.948 0 0 0-2.5866 9.2415 6.4605 6.4605 0 0 0 4.8576 7.7234 6.4241 6.4241 0 0 0 7.7357-4.8576zm152.71 164.13a98.036 98.036 0 0 0 75.668-75.571 6.4619 6.4619 0 1 0-12.642-2.6838 85.177 85.177 0 0 1-20.851 40.22 85.869 85.869 0 0 1-44.859 25.417 6.4605 6.4605 0 0 0 1.3358 12.776 6.2905 6.2905 0 0 0 1.348-0.15787zm-685.14-128.63a40.244 40.244 0 0 1 30.857 13.2l-12.144 11.525a26.838 26.838 0 0 0-18.738-8.0393c-12.836 0-21.13 9.6061-21.13 21.725 0 12.119 8.2943 21.737 21.13 21.737a26.826 26.826 0 0 0 18.738-8.0514l11.755 11.525a40.888 40.888 0 0 1-30.494 13.212c-22.806 0-39.018-16.928-39.018-38.423s16.236-38.411 39.042-38.411zm39.383 2.4287h17.645v72.037h-17.645zm41.896 15.617h-16.09v-15.653h50.178v15.617h-16.321v56.421h-17.767zm64.095 21.604-25.502-37.22h19.928l14.402 21.616 14.573-21.616h19.697l-25.502 37.22v34.817h-17.597zm61.934 12.144h18.118v1.7609a6.8734 6.8734 0 0 0 7.2863 6.837 7.6871 7.6871 0 0 0 7.6871-7.4442v-7.5535a29.242 29.242 0 0 1-10.93 2.0402c-13.686 0-22.199-10.686-22.199-23.292 0-13.212 11.403-24.13 25.441-24.13s25.332 10.93 25.332 24.13v28.805c0 13.091-11.403 23.899-25.332 23.899-13.928 0-25.441-10.335-25.441-23.292zm33.566-27.384c0-4.3232-4.0924-7.8085-8.1728-7.8085a8.1971 8.1971 0 0 0-8.1606 7.8085c0 3.9589 3.9589 7.5535 8.1606 7.5535s8.1728-3.631 8.1728-7.5535zm24.725 25.806h17.002v1.9187c0 5.2826 4.4325 8.8889 9.484 8.8889 5.5134 0 9.7153-3.6431 9.7153-8.8889 0-5.5255-4.4325-7.7964-9.7153-7.7964h-4.0924v-16.37h3.8253a6.5334 6.5334 0 0 0 6.3633-6.7034 5.2947 5.2947 0 0 0-5.4162-5.1612h-0.10929a4.9546 4.9546 0 0 0-5.0397 4.8575v1.9794h-17.573v-1.688c0-11.403 10.444-21.239 22.685-21.239 14.573 0 23.292 9.9578 23.292 20.28a20.414 20.414 0 0 1-6.8491 14.293c6.9706 5.0397 9.8487 11.525 9.8487 18.216 0 12.144-10.444 24.021-26.887 24.021-14.767 0-26.534-10.93-26.534-24.737zm59.505 11.039h15.289l-11.852 27.02h-6.9949zm53.785-42.917h-30.821v-15.945h57.623v2.4288l-37.816 69.633h-19.211zm46.996-16.09h46.572v15.653h-28.842v15.398h26.595v15.398h-26.595v25.757h-17.73zm59.225 1.1051h16.26l18.216 39.856 18.216-39.856h16.03v71.2h-17.341v-30.335l-11.293 30.274h-11.354l-11.293-30.518v30.518h-17.438z" fill="url(#a)" stop-color="#000000" style="-inkscape-stroke:none;font-variation-settings:normal"/></svg>