<?xml version="1.0" encoding="iso-8859-1"?>
<!-- Uploaded to: SVG Repo, www.svgrepo.com, Generator: SVG Repo Mixer Tools -->
<svg fill="#000000" height="800px" width="800px" version="1.1" id="Capa_1" xmlns="http://www.w3.org/2000/svg" xmlns:xlink="http://www.w3.org/1999/xlink" 
	 viewBox="0 0 533.3 533.3" xml:space="preserve">
<g>
	<path d="M214.795,324.599h103.709c7.184,0,13.566-2.811,17.51-7.714c3.554-4.417,4.811-10.042,3.541-15.838
		c-2.538-11.566-14.5-22.756-27.232-25.475c-0.236-0.051-1.544-0.328-3.616-0.741c-1.772-0.352-6.803-1.406-6.803-6.406v-6.012
		c0-8.332-5.125-15.485-12.387-18.485c-1.685-0.696-5.367-1.878-5.367-5.503V17.5c0-9.665-7.835-17.5-17.5-17.5
		c-9.665,0-17.5,7.835-17.5,17.5v220.925c0,3.125-4.044,4.904-5.875,5.72c-6.993,3.117-11.88,10.131-11.88,18.269v7.012
		c0,3.75-4.096,4.877-5.688,5.189c-2.715,0.53-4.453,0.899-4.73,0.959c-12.732,2.719-24.694,13.908-27.232,25.475
		c-1.271,5.795-0.013,11.42,3.541,15.837C201.229,321.787,207.612,324.599,214.795,324.599z"/>
	<path d="M382.631,497.455l-27.975-127.544c-2.836-12.939-15.921-23.466-29.168-23.466H207.811
		c-13.247,0-26.332,10.526-29.168,23.465l-27.975,127.546c-1.445,6.592-0.16,13.147,3.619,18.458
		c3.778,5.31,9.551,8.673,16.252,9.468c2.726,0.323,67.083,7.915,95.97,7.918h0.022c0.002,0-0.001,0-0.001,0
		c28.972,0,93.495-7.598,96.228-7.921c6.701-0.794,12.474-4.155,16.253-9.465C382.791,510.603,384.077,504.049,382.631,497.455z
		 M266.532,528.3L266.532,528.3L266.532,528.3L266.532,528.3z"/>
</g>
</svg>