<?xml version="1.0" ?><svg enable-background="new 0 0 512 512" id="Layer_1" version="1.1" viewBox="0 0 512 512" xml:space="preserve" xmlns="http://www.w3.org/2000/svg" xmlns:xlink="http://www.w3.org/1999/xlink"><g><g><linearGradient gradientUnits="userSpaceOnUse" id="SVGID_1_" x1="0.0000038" x2="512" y1="256" y2="256"><stop offset="0" style="stop-color:#E24263"/><stop offset="1" style="stop-color:#DD1E47"/></linearGradient><circle cx="256" cy="256" fill="url(#SVGID_1_)" r="256"/><linearGradient gradientUnits="userSpaceOnUse" id="SVGID_2_" x1="42.6666679" x2="469.3333435" y1="256.0005188" y2="256.0005188"><stop offset="0" style="stop-color:#DD1E47"/><stop offset="1" style="stop-color:#E24263"/></linearGradient><path d="M256,469.3338623c-117.6309357,0-213.3333282-95.7023926-213.3333282-213.3333435    c0-117.6314545,95.7023926-213.333313,213.3333282-213.333313c117.636261,0,213.3333435,95.7018661,213.3333435,213.333313    C469.3333435,373.6314697,373.636261,469.3338623,256,469.3338623z" fill="url(#SVGID_2_)"/></g><path d="M346.2309265,263.788269l-0.1413269-0.5637207   c-20.7792053-65.1600189-82.6954651-111.4208221-85.3285217-113.3482819L252.7690735,144l0.5178528,9.8725281   c0,0.4234772,1.456543,38.6912079-35.636261,70.5189362c-40.2901306,34.6016083-40.0549316,63.1381378-39.9610596,78.4645233   l0.0474548,2.1152039c0,41.7941284,30.6714783,73.0437317,74.552536,78.1952209   c-2.3882599-0.3754883-4.8286743-0.8618774-7.2773285-1.6112061c-14.1509399-4.3722839-22.4250641-14.291748-24.023468-28.5840149   l-0.375885-2.8202515c-1.2693329-11.0480042-2.9153137-24.7290649,21.2494812-50.6799927   c9.0261383-9.6848145,16.8773499-20.1216125,23.3653259-30.9818726l3.2437439-5.4528198l4.2784119,4.7008057   c12.7872009,13.962677,22.5658569,28.0666809,29.1477356,41.7941284c6.0646362,12.1296082,6.44104,31.3109436,5.9706421,35.4010925   c-2.3034668,20.8735962-17.3946533,36.4351807-37.6101074,38.6917114c-1.3178711,0.1504211-3.2901611,0.2960205-5.7050781,0.349884   C264.7658691,383.9754639,264.9674683,384,265.1807861,384c47.764801,0,85.13974-38.4096069,85.13974-87.4442749   C350.3205261,284.8026733,346.3717346,264.6341248,346.2309265,263.788269z" opacity="0.3"/><path d="M338.2309265,255.788269l-0.1413269-0.563736   c-20.7792053-65.1600037-82.6954651-111.4208069-85.328537-113.3482666L244.7690735,136l0.5178528,9.8725281   c0,0.4234772,1.456543,38.6912079-35.636261,70.5189362c-40.2901306,34.6016083-40.0549316,63.1381378-39.9610596,78.4645233   l0.0474548,2.1152039c0,41.7941284,30.6714783,73.0437317,74.552536,78.1952209   c-2.3882599-0.3754883-4.8286743-0.8618774-7.2773285-1.6112061c-14.1509399-4.3722839-22.4250641-14.291748-24.023468-28.5840149   l-0.375885-2.8202515c-1.2693329-11.0480042-2.9153137-24.7290649,21.2494812-50.6799927   c9.0261383-9.6848145,16.8773346-20.1216125,23.3653259-30.9818726l3.2437439-5.4528046l4.2784119,4.7007904   c12.7872009,13.962677,22.5658569,28.0666809,29.1477356,41.7941284c6.0646362,12.1296082,6.44104,31.3109436,5.9706421,35.4010925   c-2.3034668,20.8735962-17.3946533,36.4351807-37.6101074,38.6917114c-1.3178711,0.1504211-3.2901611,0.2960205-5.7050781,0.349884   C256.7658691,375.9754639,256.9674683,376,257.1807861,376c47.764801,0,85.13974-38.4096069,85.13974-87.4442749   C342.3205261,276.8026733,338.3717346,256.6341248,338.2309265,255.788269z" fill="#FFFFFF"/></g></svg>