<?xml version="1.0" encoding="utf-8"?>
<!-- Uploaded to: SVG Repo, www.svgrepo.com, Generator: SVG Repo Mixer Tools -->
<svg fill="#000000" height="800px" width="800px" version="1.1" id="Layer_1" xmlns="http://www.w3.org/2000/svg" xmlns:xlink="http://www.w3.org/1999/xlink" 
	 viewBox="0 0 128 85.2" xml:space="preserve">
<g>
	<g>
		<g>
			<circle cx="28.9" cy="23.2" r="11.3"/>
			<path d="M28.9,23.2"/>
		</g>
		<g>
			<path d="M53.4,20h45.4c6.7,0,10.6,4.3,10.6,10v16.4H53.4V20z"/>
		</g>
		<g>
			<path d="M41,25.9v9.8H23.6c-8.4,0-8.4,10.9,0,10.9h22.9c3.3,0,5.4-2.7,5.4-5.7v-15C51.9,17.7,41,17.7,41,25.9z"/>
		</g>
		<g>
			<path d="M15.3,10.6c0-8.9-12.4-8.9-12.4,0v71.6h12.7V63.7H112v18.4h12.4V26.7c0-9.4-12.5-9.4-12.5,0v22.1H15.3V10.6z"/>
		</g>
	</g>
</g>
</svg>