<?xml version="1.0" ?><svg style="enable-background:new 0 0 48 48;" version="1.1" viewBox="0 0 48 48" xml:space="preserve" xmlns="http://www.w3.org/2000/svg" xmlns:xlink="http://www.w3.org/1999/xlink"><g id="Icons"><g><path d="M34.44105,35.437h-20.8821c-1.2449,0-2.2541-1.0092-2.2541-2.2541V19.4751h25.3903v13.7078    C36.69515,34.4278,35.68595,35.437,34.44105,35.437z" style="fill:#F4F4F4;"/><path d="M34.14645,14.5971h-20.2931c-1.4075,0-2.5485,1.141-2.5485,2.5485v2.3295h25.39v-2.3295    C36.69485,15.7381,35.55385,14.5971,34.14645,14.5971z" style="fill:#F43734;"/><path d="M15.80175,16.6312L15.80175,16.6312c-0.4633,0-0.8424-0.3791-0.8424-0.8424v-2.3834    c0-0.4633,0.3791-0.8424,0.8424-0.8424l0,0c0.4634,0,0.8425,0.3791,0.8425,0.8424v2.3834    C16.64425,16.2521,16.26515,16.6312,15.80175,16.6312z" style="fill:#DBDBDB;"/><path d="M32.19795,16.6312L32.19795,16.6312c-0.4633,0-0.8424-0.3791-0.8424-0.8424v-2.3834    c0-0.4633,0.3791-0.8424,0.8424-0.8424l0,0c0.4633,0,0.8424,0.3791,0.8424,0.8424v2.3834    C33.04035,16.2521,32.66125,16.6312,32.19795,16.6312z" style="fill:#DBDBDB;"/><g><rect height="2.5445" style="fill:#DBDBDB;" width="4.5388" x="17.65625" y="23.4142"/><rect height="2.5445" style="fill:#DBDBDB;" width="4.5388" x="25.87025" y="23.4142"/><rect height="2.5445" style="fill:#DBDBDB;" width="4.5388" x="25.87025" y="28.4844"/><rect height="2.5445" style="fill:#DBDBDB;" width="4.5388" x="17.77565" y="28.4844"/></g></g></g></svg>