<svg width="332.15" height="115.781" viewBox="0 0 332.15 115.781" xmlns="http://www.w3.org/2000/svg"><path d="m332.15 6.931v4e-3z" fill="#fff"/><g transform="translate(0 150.13)" fill="#1e59ae"><path d="m255.1-142.15c-0.19516 0.0133-0.39476 0.031-0.58993 0.0532-3.371 0.38146-6.5602 1.8319-9.155 6.6223l-20.688 44.555h10.561l4.8481-10.566h14.66l0.0621 10.566h10.526l-1.2242-51.231zm-10.668 31.067 8.3566-19.148c0.37702-0.88711 0.85606-1.7831 1.7787-1.7565l0.11533 20.905z"/><path d="m234.89-136c-0.10202-0.51453-0.23952-0.99801-0.42582-1.4549-0.43468-1.0867-1.1133-2.0049-1.9916-2.7323-0.96695-0.80284-2.1912-1.3706-3.6194-1.6855-0.77179-0.16855-1.5968-0.2617-2.4839-0.27944h-21.317c-1.3041 0.16855-2.3908 1.2641-2.515 2.5948l-9.5897 48.64h10.282l3.8235-17.631 8.1748 0.071s0.65646-0.0133 1.3662-0.071l0.35484-0.0177 0.49679-0.0665c3.1315-0.37703 6.1078-1.4504 8.5873-3.1626 2.9452-2.0315 5.5046-5.5445 6.3872-9.6474l2.2799-9.7405c0.41251-1.8053 0.4613-3.4154 0.19073-4.817m-18.19 17.946c-0.36815 0.0399-0.74961 0.0665-1.1577 0.071l-4e-3 0.0133h-7.026l3.065-15.161h12.437c0.0577 0.0133 0.11532 0.0222 0.17742 0.0399 0.13307 0.0444 0.27057 0.11533 0.37259 0.22622 4e-3 4e-3 4e-3 0.0133 9e-3 0.0177 0.15968 0.18629 0.20847 0.38146 0.19073 0.67864v0.0266l-4e-3 4e-3v0.013s-1.3706 7.3497-1.4416 7.6602c-0.6609 2.7013-1.7654 4.5509-3.6549 5.5622-0.82945 0.43913-1.8053 0.723-2.963 0.8472"/><path d="m41.774-100.96h-0.01331 0.01331l1.8319-10.033h18.266c0.37258-2.0581 1.0512-5.7707 1.8274-10.029h-18.266l1.8275-11.107h20.461c0.69638-3.8279 1.3528-7.4118 1.8319-10.033h-25.176c-2.9363 4e-3 -5.7441 2.3819-6.2808 5.3138 0 0-6.4183 36.15-6.5735 37.081-0.15081 0.9226-0.2617 2.0537-0.2617 2.0537-0.34597 5.0166 3.4731 6.8441 6.9905 6.7554l26.028 0.03105 1.8319-10.033h-2.3597z"/><path d="m175.73-142.74c-4.919 4e-3 -9.8603 1.8896-13.901 5.3005-4.0541 3.4198-6.7598 7.9973-7.6203 12.881l-2.4795 15.223c-0.88268 5.0255 0.27944 9.7849 3.2734 13.391 3.0206 3.6372 7.4961 5.6332 12.615 5.6243 4.9235-0.0044 9.8603-1.8896 13.906-5.3005 4.0497-3.4243 6.7554-8.0018 7.6159-12.885l2.4839-15.218c0.87824-5.0255-0.28388-9.7849-3.2779-13.391-3.0162-3.6372-7.5006-5.6332-12.615-5.6243m-12.624 39.916c-1.2287-1.4815-1.6988-3.4819-1.3218-5.6332l2.4795-15.218c0.8472-4.8126 5.6908-8.8844 10.579-8.8933 2.2311-4e-3 4.1473 0.82502 5.4025 2.3331 1.2286 1.4815 1.6988 3.4819 1.3218 5.6376l-2.4839 15.214c-0.84276 4.8126-5.6908 8.8844-10.579 8.8933-2.2267 4e-3 -4.1473-0.82058-5.3981-2.3331"/><path d="m149.49-136c-0.0976-0.51453-0.24395-0.99801-0.42581-1.4549-0.43912-1.0867-1.1133-2.0049-1.9916-2.7323-0.96696-0.79841-2.1867-1.3706-3.615-1.6811-0.59881-0.13307-1.2375-0.22178-1.9117-0.2617-0.19073-9e-3 -0.38146-0.0178-0.58106-0.0222h-20.971c-1.304 0.16855-2.3952 1.2641-2.515 2.5948l-9.8159 48.64h10.503l3.8235-17.631h6.2763l4.0807 9.7228c2.9186 7.1945 4.857 8.4453 9.2349 8.3611h5.1098l-8.3655-19.21c0.47461-0.2129 7.2167-2.8077 9.0042-10.566l1.9694-10.943c0.40808-1.8053 0.4613-3.4154 0.19073-4.817m-10.126 3.8589v0.017s-1.029 7.3497-1.1044 7.6602c-0.62542 2.5372-1.6367 4.3202-3.3178 5.367-0.0133 4e-3 -0.0266 0.0133-0.0355 0.0222-0.071 0.0443-0.13751 0.0798-0.20848 0.12419-1.1089 0.61211-2.4839 0.93591-4.2138 0.96696l-4e-3 0.0133h-7.0259l3.065-15.161h12.1c0.0532 0.0133 0.11089 0.0222 0.16855 0.0399 0.1375 0.0444 0.27501 0.11533 0.37702 0.22622 0 4e-3 4e-3 0.0133 9e-3 0.0177 0.15969 0.18629 0.20848 0.38146 0.19073 0.67864z"/><path d="m73.856-142.14h10.182l0.1383 38.29c0 1.0123-2e-3 1.5369 0.87586 2.7659l17.99-41.056h10.908l-23.141 51.365c-4.6732-0.27659-10.268 1.1352-13.996-2.5239-3.1001-2.835-2.7486-7.318-2.8235-11.133z"/></g><g transform="translate(-41.991 136.76)" fill="#e51636"><path d="m367.52-128.55c-0.12864-0.68751-0.31936-1.3307-0.56776-1.9428-0.58549-1.4549-1.4815-2.6746-2.6525-3.646-1.3041-1.0734-2.9319-1.8274-4.8348-2.2488-1.029-0.22178-2.1335-0.35041-3.3178-0.37259h-27.558l-2.0847 12.615 27.137 0.0266c0.55445 0 0.80728 0.36815 0.81615 0.37259 0.31492 0.47904 0.17742 0.94921 0.17742 0.94921 0 9e-3 -4e-3 0.0133-4e-3 0.0133v0.0133s-1.1089 4.8791-1.1932 5.2916c-0.50122 2.444-2.5194 3.2646-2.5194 3.2646l-16.221 8.2856c-10.92 5.1453-14.904 10.237-16.332 15.414l-1.965 11.617c-0.46129 6.6933 4.6396 9.1373 9.328 9.022l1.9117 0.0044 9e-3 0.03105h0.0444l4e-3 -0.03105 30.477 0.03105 2.5549-12.73h-30.109c0.85163-6.538 2.8742-8.2723 4.7061-9.5498 1.2952-0.90486 23.242-11.936 23.242-11.936 4.3912-2.067 6.3207-6.1743 7.5094-11.652l1.1932-6.4094c0.54558-2.4085 0.60768-4.5642 0.2484-6.4316"/><path d="m371.26-67.388-167.62 21.934-13.409 24.475 177.9-42.706z"/><path d="m84.302-45.648-42.311-22.346h268.99l5.3271 2.9674z"/></g></svg>