<svg width="984.302" height="748.278" viewBox="0 0 984.302 748.278" xmlns="http://www.w3.org/2000/svg"><path d="m440.86 3.0188c45.72-5.81 92.51-3.23 137.28 7.71 74.65 18.09 143.28 59.95 193.65 117.93 26.74 30.6 48.46 65.59 63.97 103.15 8.97 22.09 16.36 44.96 20.61 68.44-7.02-9.73-18.21-16.38-30.2-17.46-6.37-0.72-12.76 0.38-18.82 2.32 0.62-10.88-1.12-22.34-7.66-31.34-3.05-4.43-7.02-8.17-11.48-11.12-29.31-67.1-82.31-123.44-147.12-157.41-76.08-40.33-168.33-48.45-250.41-22.59-60.1 18.61-114.4 55.26-154.42 103.77-28.31 34.12-49.58 74.08-61.89 116.68-13.73-1.05-27.51-0.27-41.26-0.52 0.65-6.54-0.28-13.18-2.71-19.28 5.15-18.25 12.62-35.85 20.81-52.96 27.67-56.68 69.97-106.09 121.61-142.29 49.6-34.94 107.83-57.52 168.04-65.03z" fill="#ffa93a"/><path d="m431.94 121.62c45.46-10.07 93.65-7.78 137.87 6.88 32.52 10.66 62.82 27.92 88.74 50.25 28.13 24.03 50.67 54.41 66.21 87.95-1.55 5.22-1.67 10.69-1.61 16.09-13.48 0.78-27 4.4-38.28 12-12.56-30.6-32.38-58.12-57.41-79.74-31.03-27.15-70.25-44.74-111.14-49.98-36.53-4.75-74.35-0.18-108.4 14.02-49.18 20.28-90.12 59.88-112 108.37-4.15 1.89-7.73 4.73-11.14 7.71-3.86-2.58-7.29-6.01-11.64-7.92-8.26-4.31-17.93-5.61-27.08-3.99 5.7-16.77 14.09-32.57 23.49-47.55 36.22-57.5 95.96-99.61 162.39-114.09z" fill="#ffa93a"/><path d="m406.07 257.26c29.38-20.85 66.86-29.9 102.51-24.59 34.92 4.69 67.81 22.81 90.34 49.91-9.3 0.31-18.88-1.01-27.9 1.92-4.09 1.1-7.83 3.11-11.41 5.33-1.14 0.96-2.43-0.21-3.51-0.61-7.69-4.09-16.33-6.35-25.04-6.59-5.18-0.14-10.36 0.06-15.53-0.1-19.86-5.91-41.63-4.93-60.99 2.36-16.25 6.34-31.1 16.8-41.66 30.77-7.12-14.79-21.07-25.6-36.8-29.91 8.4-10.99 18.7-20.51 29.99-28.49z" fill="#ffa93a"/><path d="m418.31 439.6c7.95 8.09 16.93 15.33 27.17 20.33 18.53 9.47 40.25 12.41 60.66 8.47 18.82-3.46 36.56-12.74 50.05-26.32 10.81 12.95 26.98 20.84 43.64 22.67-20.53 25.47-50.18 43.37-82.25 49.8-23.05 4.54-47.24 3.79-69.81-2.9-27.07-8.03-51.52-24.42-69.51-46.15 17.07 0.7 33.71-10.04 40.05-25.9z" fill="#ffa93a"/><path d="m835.09 463.39c8.76-2.81 16.33-8.76 21.59-16.26-9.38 49.07-29.33 96.04-57.47 137.28-28.98 42.32-66.67 78.66-110.02 106.07-50.13 31.72-107.93 51.23-167.04 56.32-41.49 3.65-83.6 0.56-124.04-9.48-40.07-9.9-78.45-26.56-113.11-48.96-65.46-42.39-117.7-105.3-146-178.08-6.49-16.88-12.28-34.14-15.83-51.88 15.78 8.03 33.93 7.12 51.12 7.08 1.7 6.04 3.69 11.99 5.66 17.94 0.96 3.32 2.39 6.47 3.91 9.57 4.37 12.73 10.53 24.79 16.79 36.68 16.72 30.86 38.47 59 64.08 82.99 29.55 27.44 64.13 49.49 101.57 64.47 40.74 16.45 84.85 24.43 128.76 23.57 68.36-1.14 136.14-24.4 190.71-65.62 57.18-42.67 99.61-104.63 118.57-173.43 9.56 4.41 20.75 5.02 30.75 1.74z" fill="#ffa93a"/><path d="m684.92 453.46c13.38 9.64 30.31 12.36 46.46 12.04-21.5 57.74-64.62 107.11-118.87 136.29-70.4 38.54-158.87 41.31-231.76 7.88-48.23-21.88-89.25-59.16-115.99-104.84 9.54-5.35 17.88-13.15 22.95-22.92 3.52-6.68 5.42-14.05 6.85-21.43l1.32 0.86c20.35 44.43 56.17 81.73 100.26 102.99 38.5 18.73 82.79 25.38 125.09 18.68 36.99-5.65 72.31-21.5 101.31-45.12 27.46-22.3 49.1-51.66 62.38-84.43z" fill="#ffa93a"/><path d="m38.097 253.27c13.81-11.65 32.07-17.39 50.01-17.17 10.93 0.17 22.06 3.61 30.43 10.81 5.16 4.43 9.25 10.1 11.86 16.39 2.43 6.1 3.36 12.74 2.71 19.28 13.75 0.25 27.53-0.53 41.26 0.52 16.26 1.55 32.39 8.18 43.61 20.31 5.95-10.33 16.36-17.88 28.08-20.15 9.15-1.62 18.82-0.32 27.08 3.99 4.35 1.91 7.78 5.34 11.64 7.92 3.41-2.98 6.99-5.82 11.14-7.71 9.67-4.59 20.58-5.15 31.11-4.87 16.36 0.37 33.1-1.47 49.05 3.16 15.73 4.31 29.68 15.12 36.8 29.91 8.03 15.92 9.01 34.15 8.63 51.66 0 18.34-0.01 36.69 0 55.04 0.06 5.88-1.04 11.76-3.2 17.24-6.34 15.86-22.98 26.6-40.05 25.9-12.14-0.32-23.74-6.35-31.39-15.69-11.66 15.07-33.96 19.97-50.99 11.53l-1.32-0.86c-1.43 7.38-3.33 14.75-6.85 21.43-5.07 9.77-13.41 17.57-22.95 22.92-14.15 7.78-30.76 10.78-46.78 9.33-13.83-1.29-27.2-8.92-34.12-21.17-1.52-3.1-2.95-6.25-3.91-9.57-1.57-5.85-1.78-11.98-1.08-17.98-1.53 0.01-3.06 0.03-4.58 0.04-17.19 0.04-35.34 0.95-51.12-7.08-9.91-4.8-18.51-12.14-24.98-21.03-3.89 10.72-12.06 19.89-22.55 24.48-13.16 5.91-29.36 4.53-41.18-3.8-11.27-7.68-18.16-21.13-18.15-34.74-0.04-21.93 0.02-43.86-0.03-65.79-8.96-7.06-15.17-17.72-16.09-29.16-1.33-13.47 4.52-27.31 15-35.85 0.92-0.95 2.53-1.52 2.58-3.05 2.6-13.8 9.4-27.16 20.33-36.19" fill="#231f1e"/><path d="m752.09 238.19c11.91-3.88 25.55-2.37 36.12 4.46 4.46 2.95 8.43 6.69 11.48 11.12 6.54 9 8.28 20.46 7.66 31.34 6.06-1.94 12.45-3.04 18.82-2.32 11.99 1.08 23.18 7.73 30.2 17.46 0.39 0.54 0.77 1.09 1.17 1.66 26.25-24.98 71.18-26.2 99.06-3.22 12.38 10.07 20.99 24.4 24.87 39.82 3.99 14.6 2.5 29.83 2.79 44.77 0.24 10.81-1 21.73-4.48 32-4.77 14.42-13.88 27.49-26.22 36.43-28.05 20.61-70.76 18.44-95.97-5.81-0.23 0.31-0.68 0.92-0.91 1.23-5.26 7.5-12.83 13.45-21.59 16.26-10 3.28-21.19 2.67-30.75-1.74-3.82-1.76-7.24-4.23-10.43-6.94-5.44 4.52-11.88 7.87-18.8 9.44-6.87 1.71-14 1.28-21.01 1.32-7.57 0.01-15.14-0.02-22.72 0.03-16.15 0.32-33.08-2.4-46.46-12.04-1.95-1.41-3.81-2.92-5.66-4.44-8.43 11.02-22.48 16.77-36.18 16.46-14.41-0.25-28.87 0.6-43.25-0.73-16.66-1.83-32.83-9.72-43.64-22.67-5.96-6.99-10.1-15.29-13.25-23.86-0.52-0.11-1.57-0.32-2.09-0.43 0.59 10.82-1.78 22.08-8.48 30.8-8.84 12.19-24.59 18.63-39.45 16.52-13.3-1.58-25.4-10.2-31.42-22.13-3.31-6.32-4.9-13.47-4.87-20.59 0.01-31.36 0-62.73 0-94.1 0.01-11.76 3.58-23.96 11.86-32.59 7.63-8.15 18.72-12.32 29.71-12.98 5.77-0.29 11.55-0.04 17.33-0.19 5.17 0.16 10.35-0.04 15.53 0.1 8.71 0.24 17.35 2.5 25.04 6.59 1.08 0.4 2.37 1.57 3.51 0.61 3.58-2.22 7.32-4.23 11.41-5.33 9.02-2.93 18.6-1.61 27.9-1.92 12.75 0.23 25.67-0.85 38.24 1.91 25.179 7.2014 28.811 23.205 47.71 10.3 11.28-7.6 24.8-11.22 38.28-12-0.06-5.4 0.06-10.87 1.61-16.09 3.61-13.27 14.17-24.41 27.33-28.51" fill="#231f1e"/><path d="m68.997 273.38c5.97-2.57 12.51-3.85 19.01-3.68 3.34 0.13 6.92 0.89 9.4 3.3 3.64 3.48 2.18 10.39-2.24 12.5-7.94 2.24-17.58 0.91-23.97 7.02-5.33 6.67-4.1 15.91-4.29 23.9 8.06 0.05 16.12-0.05 24.17 0.04 4.37-0.17 8.65 3.29 8.87 7.76 0.58 4.53-3.3 8.73-7.78 8.91-8.41 0.22-16.83 0.02-25.25 0.09-0.01 29.73 0.01 59.46-0.01 89.18 0.4 4.91-3.75 9.77-8.81 9.49-4.46 0.03-7.98-4.17-7.92-8.48-0.1-30.06-0.02-60.14-0.04-90.21-4.36-0.24-9.37 1-13.1-1.9-4.16-3.05-4.28-10.15 0-13.14 3.82-2.69 8.75-1.46 13.1-1.72 0.27-9.35-0.65-19.14 2.88-28.02 2.7-7.15 9.15-12.11 15.98-15.04z" fill="#fff"/><path d="m121.01 326.4c-1.06-4.92 3.13-9.75 8.04-9.89 12.02-0.18 24.05-0.05 36.08-0.06 9.52 0.1 19.92 1.88 26.97 8.85 7.07 7.02 8.89 17.48 9.09 27.05 0.05 21.66 0.02 43.32 0.02 64.97-0.15 3.93-0.17 8.28-2.66 11.56-2.22 2.83-6.11 3.06-9.42 3.02-11.55-0.1-23.09 0.13-34.63-0.14-7.33-0.18-14.77-1.89-20.85-6.13-8.04-5.5-13.39-14.66-14.6-24.29-1.92-15.66 9.1-32.41 25-35.13 13.32-2.41 26.96-0.66 40.41-1.28-0.21-8.3 0.7-17.19-3.18-24.85-2.41-4.85-8.04-6.91-13.18-6.84-12.69-0.07-25.38 0.03-38.06-0.05-4.09 0.16-8.43-2.54-9.03-6.79m20.97 60.03c-7.04 5.18-7.07 16.93-0.59 22.59 4.54 4.05 10.85 5.3 16.77 5.3 8.76 0.01 17.51-0.02 26.27 0.01 0-10.85-0.01-21.69 0.01-32.54-8.46-0.01-16.92-0.07-25.37 0.03-5.91 0.25-12.19 1.03-17.09 4.61z" fill="#fff"/><path d="m251.43 316.84c5.19-1.92 11.18 2.33 11.2 7.82 0.11 38.2 0.02 76.4 0.04 114.6-0.14 9.14-0.83 18.63-4.74 27.04-4.63 8.53-14.6 12.24-23.69 13.7-6.12 0.7-12.85 1.69-18.56-1.21-5.06-2.65-4.74-11.06 0.46-13.4 6.86-3.2 15.12-0.35 21.9-3.86 6.48-5.26 7.55-14.28 7.82-22.09 0.08-38.02-0.02-76.05 0.05-114.08-0.12-3.6 1.92-7.45 5.52-8.52z" fill="#fff"/><path d="m308.8 319.08c3.1-2.6 7.43-2.5 11.26-2.65 11.37 0.02 22.74-0.06 34.11 0.05 9.06 0.2 18.98 2.31 25.2 9.45 7.15 8.32 8.28 19.88 8.54 30.41 0.03 22.34 0.07 44.68-0.01 67.02 0.04 4.62-4.07 8.86-8.78 8.53-4.45 0.03-7.95-4.13-7.92-8.43-0.14-22.4 0.04-44.81-0.09-67.21-0.31-6.18-0.55-13.18-4.94-18.03-4.41-4.49-11.2-4.81-17.1-4.99-8.82-0.03-17.65 0-26.47-0.02 0 29.72 0.01 59.43 0 89.14 0.35 4.48-2.89 9.13-7.56 9.49-4.85 0.79-9.02-3.77-8.93-8.43-0.09-31.68 0.01-63.37-0.04-95.05 0.06-3.21 0.19-6.93 2.73-9.28z" fill="#fff"/><path d="m762.14 270.31c3.52-1.5 8.05-0.35 10.11 2.97 1.99 2.97 1.45 6.68 1.52 10.06-0.01 46 0 91.99 0 137.99-0.04 2.86-0.24 6.15-2.5 8.2-2.22 1.93-5.35 2.04-8.13 2.1-10.01-0.01-20.02-0.01-30.03 0-7.9 0.01-16.09 0.06-23.54-2.96-7.04-3.07-12.92-9.03-15.44-16.33-2.37-6.72-2.53-13.94-2.48-20.99 0.04-13.66-0.08-27.32 0.06-40.98 0.39-8.37 1.72-17.48 7.53-23.96 6.91-7.14 17.23-9.57 26.85-9.91 10.3-0.16 20.59-0.02 30.89-0.07 0.02-12.68-0.06-25.36 0.03-38.04-0.04-3.38 1.91-6.83 5.13-8.08m-48.88 68.19c-3.86 4.23-4.75 10.22-4.82 15.73-0.01 13.04 0 26.07 0 39.11 0.02 5.61 0.83 11.76 4.79 16.06 3.74 4.05 9.5 5.22 14.8 5.4 9.64 0.1 19.29-0.01 28.94 0.05 0.02-27.3 0-54.59 0.01-81.89-9.31 0-18.62-0.03-27.93 0.01-5.62 0.07-11.82 1.2-15.79 5.53z" fill="#fff"/><path d="m491.89 320.32c1.85-3.15 5.83-3.78 9.17-3.85 9-0.1 18-0.01 27.01-0.05 11.78-0.43 23.19 7.97 26.45 19.26 0.82 3.35 1.44 7.28-0.58 10.34-1.97 2.91-6.02 3.49-9.18 2.6-5.3-3.41-5.79-11.46-12.02-13.83-8.22-3.06-17.19-1.41-25.75-1.83-0.01 29.81 0.01 59.63-0.01 89.45 0.04 2.57-0.78 5.28-2.74 7.04-3.21 3.04-8.98 2.94-11.88-0.48-1.6-1.8-2.19-4.26-2.15-6.61-0.02-29.99 0-59.99-0.02-89.98 0.09-4.04-0.39-8.41 1.7-12.06z" fill="#fff"/><path d="m578.03 318.23c2.03-1.52 4.61-1.88 7.09-1.8 11.67 0.03 23.34-0.06 35.02 0.05 9.2 0.22 19.16 2.18 25.89 8.96 6.95 7.02 8.76 17.38 8.93 26.88 0.04 21.65 0.01 43.31 0.01 64.97-0.13 3.85-0.17 8.12-2.58 11.35-1.95 2.5-5.36 2.97-8.33 2.99-10 0-20-0.01-30 0-5-0.03-10.04-0.15-14.94-1.21-11.36-2.54-21.14-11.18-24.75-22.29-5.02-13.75 0.94-30.47 13.46-38.01 6.26-4.01 13.88-5.05 21.17-5.13 9.71 0 19.42-0.02 29.14 0.02-0.07-8.5 0.83-17.64-3.22-25.44-2.61-5.01-8.62-6.77-13.9-6.61-12.34-0.03-24.68 0.01-37.02-0.01-3.2 0.05-6.61-1.28-8.3-4.11-2.09-3.45-0.97-8.34 2.33-10.61m18.44 67.42c-7.83 4.94-8.07 17.65-1.08 23.42 4.58 3.89 10.82 5 16.67 4.99h26.13c-0.01-10.85-0.01-21.7 0-32.54-8.4 0.02-16.8-0.06-25.19 0.03-5.68 0.22-11.66 0.94-16.53 4.1z" fill="#fff"/><path d="m818.59 317.06c3.71-1.58 8.51-0.18 10.52 3.39 1.45 2.35 1.19 5.22 1.23 7.87-0.03 31.33 0 62.67-0.01 94 0.31 4.33-2.79 8.78-7.25 9.24-4.9 0.92-9.56-3.37-9.5-8.24-0.08-32.68-0.03-65.36-0.02-98.04-0.13-3.42 1.79-6.93 5.03-8.22z" fill="#fff"/><path d="m900.5 316.94c11.12-1.99 23.24-0.23 32.59 6.4 8.36 5.82 13.84 15.16 15.97 25.03 1.86 7.86 1.25 15.97 1.35 23.97-0.17 10.8 0.96 21.97-2.79 32.34-3.74 11.45-12.77 21.21-24.33 24.95-12.49 4.02-27.01 2.85-38.06-4.51-8.76-5.79-14.47-15.43-16.64-25.59-2.09-9.27-1.1-18.82-1.33-28.23-0.18-11.1-0.34-22.74 4.77-32.92 5.17-11.31 16.23-19.46 28.47-21.44m1.01 17.04c-5.61 1.51-10.39 5.5-13.03 10.65-5.04 9.38-4.45 20.36-4.44 30.67-0.15 10.04-0.18 20.89 5.52 29.63 8.06 13.14 30.12 13.35 38.45 0.41 5.05-7.62 5.76-17.1 5.63-25.99-0.2-9.87 0.82-20-2.07-29.6-1.62-5.58-4.89-10.96-10.07-13.85-6.02-3.36-13.43-3.63-19.99-1.92z" fill="#fff"/></svg>