<?xml version="1.0" encoding="iso-8859-1"?>
<!-- Generator: Adobe Illustrator 19.0.0, SVG Export Plug-In . SVG Version: 6.00 Build 0)  -->
<svg version="1.1" id="Layer_1" xmlns="http://www.w3.org/2000/svg" xmlns:xlink="http://www.w3.org/1999/xlink" x="0px" y="0px"
	 viewBox="0 0 512 512" style="enable-background:new 0 0 512 512;" xml:space="preserve">
<rect y="110.716" style="fill:#8F8F8F;" width="496.327" height="48.149"/>
<g>
	<rect x="82.589" y="304.952" style="fill:#424242;" width="31.347" height="159.337"/>
	<rect x="398.064" y="304.952" style="fill:#424242;" width="31.347" height="159.337"/>
</g>
<path style="fill:#7DAEC9;" d="M413.735,47.711c-21.779,0-39.433,17.655-39.433,39.433c0-21.779-17.655-39.433-39.433-39.433
	c-21.779,0-39.433,17.655-39.433,39.433c0-21.779-17.655-39.433-39.433-39.433s-39.433,17.655-39.433,39.433
	c0-21.779-17.655-39.433-39.433-39.433s-39.433,17.655-39.433,39.433c0-21.779-17.655-39.433-39.433-39.433
	S58.834,65.366,58.834,87.144V373.6c0,21.779,17.655,39.433,39.433,39.433s39.433-17.655,39.433-39.433
	c0,21.779,17.655,39.433,39.433,39.433s39.433-17.655,39.433-39.433c0,21.779,17.655,39.433,39.433,39.433
	s39.433-17.655,39.433-39.433c0,21.779,17.655,39.433,39.433,39.433s39.433-17.655,39.433-39.433
	c0,21.779,17.655,39.433,39.433,39.433c21.779,0,39.433-17.655,39.433-39.433V87.144C453.168,65.367,435.513,47.711,413.735,47.711z
	"/>
<rect x="480.653" y="74.071" style="fill:#424242;" width="31.347" height="121.448"/>
<g>
	<path style="fill:#BDE5F9;" d="M98.265,47.711c-21.779,0-39.433,17.655-39.433,39.433V373.6c0,21.779,17.655,39.433,39.433,39.433
		V47.711z"/>
	<path style="fill:#BDE5F9;" d="M177.133,47.711c-21.779,0-39.433,17.655-39.433,39.433V373.6c0,21.779,17.655,39.433,39.433,39.433
		V47.711z"/>
	<path style="fill:#BDE5F9;" d="M256,47.711c-21.779,0-39.433,17.655-39.433,39.433V373.6c0,21.779,17.655,39.433,39.433,39.433
		V47.711z"/>
	<path style="fill:#BDE5F9;" d="M334.867,47.711c-21.779,0-39.433,17.655-39.433,39.433V373.6c0,21.779,17.655,39.433,39.433,39.433
		L334.867,47.711L334.867,47.711z"/>
	<path style="fill:#BDE5F9;" d="M413.735,47.711c-21.779,0-39.433,17.655-39.433,39.433V373.6c0,21.779,17.655,39.433,39.433,39.433
		L413.735,47.711L413.735,47.711z"/>
</g>
<g>
</g>
<g>
</g>
<g>
</g>
<g>
</g>
<g>
</g>
<g>
</g>
<g>
</g>
<g>
</g>
<g>
</g>
<g>
</g>
<g>
</g>
<g>
</g>
<g>
</g>
<g>
</g>
<g>
</g>
</svg>
