<?xml version="1.0" encoding="iso-8859-1"?>
<!-- Generator: Adobe Illustrator 19.0.0, SVG Export Plug-In . SVG Version: 6.00 Build 0)  -->
<svg version="1.1" id="Layer_1" xmlns="http://www.w3.org/2000/svg" xmlns:xlink="http://www.w3.org/1999/xlink" x="0px" y="0px"
	 viewBox="0 0 512 512" style="enable-background:new 0 0 512 512;" xml:space="preserve">
<g>
	<path style="fill:#64C37D;" d="M256,512C128.502,512,24.774,408.272,24.774,280.774c0-84.49,46.065-162.23,120.216-202.879
		c12.006-6.577,27.057-2.18,33.633,9.816c6.577,11.997,2.182,27.055-9.814,33.633c-58.282,31.949-94.487,93.039-94.487,159.43
		c0,100.177,81.5,181.677,181.677,181.677s181.677-81.5,181.677-181.677c0-66.682-36.44-127.899-95.097-159.764
		c-12.022-6.532-16.475-21.573-9.943-33.595s21.572-16.475,33.595-9.944c74.631,40.542,120.992,118.444,120.992,203.304
		C487.226,408.272,383.498,512,256,512z"/>
	<path style="fill:#64C37D;" d="M256,214.71c-13.682,0-24.774-11.092-24.774-24.774V24.774C231.226,11.092,242.318,0,256,0
		c13.682,0,24.774,11.092,24.774,24.774v165.161C280.774,203.617,269.682,214.71,256,214.71z"/>
</g>
<g>
</g>
<g>
</g>
<g>
</g>
<g>
</g>
<g>
</g>
<g>
</g>
<g>
</g>
<g>
</g>
<g>
</g>
<g>
</g>
<g>
</g>
<g>
</g>
<g>
</g>
<g>
</g>
<g>
</g>
</svg>
